<?xml version="1.0" encoding="UTF-8" standalone="no" ?>
<!DOCTYPE svg PUBLIC "-//W3C//DTD SVG 1.1//EN" "http://www.w3.org/Graphics/SVG/1.1/DTD/svg11.dtd">
<svg xmlns="http://www.w3.org/2000/svg" xmlns:xlink="http://www.w3.org/1999/xlink" version="1.1" width="400" height="400" viewBox="0 0 400 400" xml:space="preserve">
<desc>Created with Fabric.js 3.6.2</desc>
<defs>
</defs>
<g transform="matrix(0 -4.17 -4.17 0 264.58 197.92)" id="Path"  >
<path style="stroke: none; stroke-width: 1; stroke-dasharray: none; stroke-linecap: butt; stroke-dashoffset: 0; stroke-linejoin: miter; stroke-miterlimit: 4; fill: rgb(0,0,0); fill-rule: nonzero; opacity: 1;"  transform=" translate(-39.5, -23.5)" d="M 31.0839749 28.2226499 L 31.0434343 28.2953753 C 30.8973068 28.6162383 31.1291771 29 31.5 29 L 37 29 L 37 30.5 C 37 30.7761424 37.2238576 31 37.5 31 L 41.5 31 L 41.5898756 30.9919443 C 41.8231248 30.9496084 42 30.7454599 42 30.5 L 42 29 L 47.5 29 C 47.8993477 29 48.1375434 28.5549273 47.9160251 28.2226499 L 39.9160251 16.2226499 C 39.7181141 15.9257834 39.2818859 15.9257834 39.0839749 16.2226499 L 31.0839749 28.2226499 Z M 39.5 17.402 L 46.565 28 L 41.5 28 L 41.4101244 28.0080557 C 41.1768752 28.0503916 41 28.2545401 41 28.5 L 41 30 L 38 30 L 38 28.5 L 37.9919443 28.4101244 C 37.9496084 28.1768752 37.7454599 28 37.5 28 L 32.434 28 L 39.5 17.402 Z" stroke-linecap="round" />
</g>
<g transform="matrix(4.17 0 0 4.17 222.92 197.92)" id="Path-3"  >
<path style="stroke: none; stroke-width: 1; stroke-dasharray: none; stroke-linecap: butt; stroke-dashoffset: 0; stroke-linejoin: miter; stroke-miterlimit: 4; fill: rgb(0,0,0); fill-rule: nonzero; opacity: 1;"  transform=" translate(-29.5, -23.5)" d="M 30.5 21 L 28.5 21 C 28.2238576 21 28 21.2238576 28 21.5 L 28 25.5 C 28 25.7761424 28.2238576 26 28.5 26 L 30.5 26 C 30.7761424 26 31 25.7761424 31 25.5 L 31 21.5 C 31 21.2238576 30.7761424 21 30.5 21 Z M 30 22 L 30 25 L 29 25 L 29 22 L 30 22 Z" stroke-linecap="round" />
</g>
<g transform="matrix(4.17 0 0 4.17 204.17 197.92)" id="Path-3"  >
<path style="stroke: none; stroke-width: 1; stroke-dasharray: none; stroke-linecap: butt; stroke-dashoffset: 0; stroke-linejoin: miter; stroke-miterlimit: 4; fill: rgb(0,0,0); fill-rule: nonzero; opacity: 1;"  transform=" translate(-25, -23.5)" d="M 26.5 21 L 23.5 21 C 23.2238576 21 23 21.2238576 23 21.5 L 23 25.5 C 23 25.7761424 23.2238576 26 23.5 26 L 26.5 26 C 26.7761424 26 27 25.7761424 27 25.5 L 27 21.5 C 27 21.2238576 26.7761424 21 26.5 21 Z M 26 22 L 26 25 L 24 25 L 24 22 L 26 22 Z" stroke-linecap="round" />
</g>
<g transform="matrix(4.17 0 0 4.17 181.25 197.92)" id="Path-3"  >
<path style="stroke: none; stroke-width: 1; stroke-dasharray: none; stroke-linecap: butt; stroke-dashoffset: 0; stroke-linejoin: miter; stroke-miterlimit: 4; fill: rgb(0,0,0); fill-rule: nonzero; opacity: 1;"  transform=" translate(-19.5, -23.5)" d="M 21.5 21 L 17.5 21 C 17.2238576 21 17 21.2238576 17 21.5 L 17 25.5 C 17 25.7761424 17.2238576 26 17.5 26 L 21.5 26 C 21.7761424 26 22 25.7761424 22 25.5 L 22 21.5 C 22 21.2238576 21.7761424 21 21.5 21 Z M 21 22 L 21 25 L 18 25 L 18 22 L 21 22 Z" stroke-linecap="round" />
</g>
<g transform="matrix(4.17 0 0 4.17 154.17 197.92)" id="Path-3"  >
<path style="stroke: none; stroke-width: 1; stroke-dasharray: none; stroke-linecap: butt; stroke-dashoffset: 0; stroke-linejoin: miter; stroke-miterlimit: 4; fill: rgb(0,0,0); fill-rule: nonzero; opacity: 1;"  transform=" translate(-13, -23.5)" d="M 15.5 21 L 10.5 21 C 10.2238576 21 10 21.2238576 10 21.5 L 10 25.5 C 10 25.7761424 10.2238576 26 10.5 26 L 15.5 26 C 15.7761424 26 16 25.7761424 16 25.5 L 16 21.5 C 16 21.2238576 15.7761424 21 15.5 21 Z M 15 22 L 15 25 L 11 25 L 11 22 L 15 22 Z" stroke-linecap="round" />
</g>
<g transform="matrix(4.17 0 0 4.17 122.92 197.92)" id="Path-3"  >
<path style="stroke: none; stroke-width: 1; stroke-dasharray: none; stroke-linecap: butt; stroke-dashoffset: 0; stroke-linejoin: miter; stroke-miterlimit: 4; fill: rgb(0,0,0); fill-rule: nonzero; opacity: 1;"  transform=" translate(-5.5, -23.5)" d="M 8.5 21 L 2.5 21 C 2.22385763 21 2 21.2238576 2 21.5 L 2 25.5 C 2 25.7761424 2.22385763 26 2.5 26 L 8.5 26 C 8.77614237 26 9 25.7761424 9 25.5 L 9 21.5 C 9 21.2238576 8.77614237 21 8.5 21 Z M 8 22 L 8 25 L 3 25 L 3 22 L 8 22 Z" stroke-linecap="round" />
</g>
</svg>